<svg
	width="18"
	height="18"
	viewBox="0 0 18 18"
	fill="none"
	xmlns="http://www.w3.org/2000/svg"
>
	<path
		d="M2.25 3.375H5.625V10.6875H2.25C2.10082 10.6875 1.95774 10.6282 1.85225 10.5227C1.74676 10.4173 1.6875 10.2742 1.6875 10.125V3.9375C1.6875 3.78832 1.74676 3.64524 1.85225 3.53975C1.95774 3.43426 2.10082 3.375 2.25 3.375V3.375Z"
		fill="#808080"
		stroke="#808080"
		stroke-linecap="round"
		stroke-linejoin="round"
	/>
	<path
		d="M5.625 10.6875L8.4375 16.3125C9.03424 16.3125 9.60653 16.0754 10.0285 15.6535C10.4504 15.2315 10.6875 14.6592 10.6875 14.0625V12.375H15.0398C15.1994 12.3754 15.3571 12.3416 15.5025 12.276C15.6479 12.2104 15.7776 12.1144 15.8828 11.9945C15.988 11.8747 16.0664 11.7336 16.1126 11.581C16.1588 11.4283 16.1718 11.2675 16.1508 11.1094L15.307 4.35938C15.2729 4.0884 15.1414 3.8391 14.9369 3.65798C14.7325 3.47685 14.4692 3.37627 14.1961 3.375H5.625"
		fill="#808080"
	/>
	<path
		d="M5.625 10.6875L8.4375 16.3125C9.03424 16.3125 9.60653 16.0754 10.0285 15.6535C10.4504 15.2315 10.6875 14.6592 10.6875 14.0625V12.375H15.0398C15.1994 12.3754 15.3571 12.3416 15.5025 12.276C15.6479 12.2104 15.7776 12.1144 15.8828 11.9945C15.988 11.8747 16.0664 11.7336 16.1126 11.581C16.1588 11.4283 16.1718 11.2675 16.1508 11.1094L15.307 4.35938C15.2729 4.0884 15.1414 3.8391 14.9369 3.65798C14.7325 3.47685 14.4692 3.37627 14.1961 3.375H5.625"
		stroke="#808080"
		stroke-linecap="round"
		stroke-linejoin="round"
	/>
</svg>