<svg
	width="11"
	height="14"
	viewBox="0 0 11 14"
	fill="none"
	xmlns="http://www.w3.org/2000/svg"
>
	<path
		fill-rule="evenodd"
		clip-rule="evenodd"
		d="M6.81952 0.743037C7.77586 -0.247679 9.3264 -0.247679 10.2827 0.743037C11.2391 1.73375 11.2391 3.34002 10.2827 4.33074L5.50937 9.27568C5.24034 9.5544 5.07605 9.72462 4.89293 9.87258C4.67719 10.0469 4.44375 10.1964 4.19676 10.3183C3.98712 10.4218 3.76667 10.4979 3.40571 10.6225L1.72576 11.2026L1.32243 11.3419C0.961408 11.4666 0.563382 11.3693 0.294294 11.0905C0.0252052 10.8117 -0.0687551 10.3994 0.0515847 10.0254L0.746009 7.86725C0.86631 7.49331 0.939777 7.26494 1.03969 7.04777C1.1574 6.79189 1.30167 6.55007 1.46995 6.32657C1.61278 6.13687 1.77709 5.96667 2.04615 5.68797L6.81952 0.743037ZM1.70401 10.1806L1.17264 9.63011L1.6305 8.20714C1.76381 7.79284 1.81887 7.62439 1.89083 7.46798C1.97908 7.27615 2.08724 7.09485 2.2134 6.92729C2.31627 6.79066 2.43708 6.66431 2.73517 6.35551L6.43806 2.51953C6.59091 2.91673 6.84951 3.39613 7.28561 3.8479C7.7217 4.29966 8.18447 4.56756 8.56789 4.7259L4.86499 8.56189C4.56691 8.87069 4.44494 8.99584 4.31306 9.10241C4.15131 9.2331 3.9763 9.34515 3.79112 9.43657C3.64014 9.51112 3.47753 9.56816 3.0776 9.70626L1.70401 10.1806ZM9.31917 3.94761C9.24134 3.92991 9.14402 3.90328 9.03337 3.86351C8.72913 3.75416 8.32893 3.54739 7.95231 3.15723C7.57568 2.76708 7.37609 2.35249 7.27053 2.03732C7.23215 1.92269 7.20644 1.82187 7.18935 1.74124L7.48622 1.4337C8.07435 0.824426 9.02791 0.824426 9.61604 1.4337C10.2042 2.04297 10.2042 3.0308 9.61604 3.64007L9.31917 3.94761ZM1.27974e-05 13.5116C1.27974e-05 13.2419 0.211078 13.0233 0.471441 13.0233H10.5286V14H0.471441C0.211078 14 1.27974e-05 13.7813 1.27974e-05 13.5116Z"
		fill="currentColor"
	/>
</svg>