<svg
	width="17"
	height="17"
	viewBox="0 0 17 17"
	fill="none"
	xmlns="http://www.w3.org/2000/svg"
>
	<path
		fill-rule="evenodd"
		clip-rule="evenodd"
		d="M2.80166 1.59375C2.8122 1.59375 2.82276 1.59375 2.83336 1.59375L14.1984 1.59375C14.505 1.59372 14.7861 1.59368 15.0147 1.62443C15.2665 1.65828 15.5327 1.73793 15.7515 1.95682C15.9704 2.17571 16.0501 2.44185 16.0839 2.69365C16.1147 2.92231 16.1146 3.2034 16.1146 3.50998V3.57337C16.1146 3.87994 16.1147 4.16103 16.0839 4.38969C16.0501 4.64149 15.9704 4.90763 15.7515 5.12652C15.5435 5.33461 15.2927 5.41686 15.0521 5.45356V9.2483C15.0521 10.55 15.0521 11.5811 14.9436 12.3881C14.832 13.2185 14.5967 13.8907 14.0666 14.4208C13.5366 14.9509 12.8644 15.1861 12.0339 15.2978C11.227 15.4063 10.1959 15.4063 8.89415 15.4063H8.1059C6.80415 15.4063 5.77308 15.4063 4.96613 15.2978C4.13567 15.1861 3.4635 14.9509 2.93341 14.4208C2.40331 13.8907 2.16807 13.2185 2.05641 12.3881C1.94792 11.5811 1.94793 10.55 1.94794 9.2483L1.94794 5.45356C1.70737 5.41686 1.45659 5.33461 1.24851 5.12652C1.02962 4.90763 0.949966 4.64149 0.916112 4.38969C0.88537 4.16104 0.885403 3.87995 0.885439 3.57337C0.885441 3.56283 0.885442 3.55227 0.885442 3.54167C0.885442 3.53108 0.885441 3.52051 0.885439 3.50997C0.885403 3.2034 0.88537 2.92231 0.916112 2.69365C0.949966 2.44185 1.02962 2.17571 1.24851 1.95682C1.4674 1.73793 1.73354 1.65828 1.98534 1.62443C2.21399 1.59368 2.49508 1.59372 2.80166 1.59375ZM3.01044 5.48959V9.20834C3.01044 10.559 3.01157 11.5186 3.10944 12.2465C3.20525 12.9591 3.38493 13.3697 3.68471 13.6695C3.98448 13.9693 4.39506 14.1489 5.10771 14.2448C5.83564 14.3426 6.79519 14.3438 8.14586 14.3438H8.85419C10.2049 14.3438 11.1644 14.3426 11.8923 14.2448C12.605 14.1489 13.0156 13.9693 13.3153 13.6695C13.6151 13.3697 13.7948 12.9591 13.8906 12.2465C13.9885 11.5186 13.9896 10.559 13.9896 9.20834V5.48959H3.01044ZM1.99982 2.70813L2.00154 2.70716C2.00291 2.70644 2.00526 2.7053 2.00883 2.70383C2.02426 2.69748 2.05852 2.68665 2.12691 2.67745C2.27617 2.65738 2.48443 2.65626 2.83336 2.65626H14.1667C14.5156 2.65626 14.7239 2.65738 14.8731 2.67745C14.9415 2.68665 14.9758 2.69748 14.9912 2.70383C14.9948 2.7053 14.9971 2.70644 14.9985 2.70716L15.0002 2.70812L15.0012 2.70986C15.0019 2.71122 15.0031 2.71357 15.0045 2.71715C15.0109 2.73257 15.0217 2.76683 15.0309 2.83522C15.051 2.98449 15.0521 3.19274 15.0521 3.54167C15.0521 3.8906 15.051 4.09886 15.0309 4.24812C15.0217 4.31651 15.0109 4.35077 15.0045 4.3662C15.0031 4.36977 15.0019 4.37212 15.0012 4.37349L15.0002 4.37522L14.9985 4.37619C14.9971 4.3769 14.9948 4.37805 14.9912 4.37952C14.9758 4.38586 14.9415 4.3967 14.8731 4.40589C14.7239 4.42596 14.5156 4.42709 14.1667 4.42709H2.83336C2.48443 4.42709 2.27617 4.42596 2.12691 4.40589C2.05852 4.3967 2.02426 4.38586 2.00883 4.37952C2.00526 4.37805 2.00291 4.3769 2.00154 4.37619L1.99982 4.37521L1.99884 4.37349C1.99813 4.37212 1.99698 4.36977 1.99551 4.3662C1.98917 4.35077 1.97833 4.31651 1.96914 4.24812C1.94907 4.09886 1.94794 3.8906 1.94794 3.54167C1.94794 3.19274 1.94907 2.98449 1.96914 2.83523C1.97833 2.76683 1.98917 2.73257 1.99551 2.71715C1.99698 2.71357 1.99813 2.71122 1.99884 2.70986L1.99982 2.70813ZM1.99982 4.37521C1.99953 4.37492 1.99963 4.37498 1.99982 4.37521V4.37521ZM7.42211 6.90625H9.57794C9.72972 6.90625 9.86915 6.90624 9.98626 6.91423C10.1121 6.92281 10.2505 6.94237 10.3911 7.00061C10.6948 7.12642 10.9361 7.36774 11.0619 7.67147C11.1202 7.81208 11.1397 7.95044 11.1483 8.07627C11.1563 8.19338 11.1563 8.33281 11.1563 8.48459V8.51542C11.1563 8.6672 11.1563 8.80663 11.1483 8.92374C11.1397 9.04957 11.1202 9.18793 11.0619 9.32854C10.9361 9.63227 10.6948 9.87359 10.3911 9.9994C10.2505 10.0576 10.1121 10.0772 9.98626 10.0858C9.86915 10.0938 9.72972 10.0938 9.57794 10.0938H7.42211C7.27033 10.0938 7.1309 10.0938 7.01379 10.0858C6.88796 10.0772 6.7496 10.0576 6.60899 9.9994C6.30526 9.87359 6.06394 9.63227 5.93813 9.32854C5.87989 9.18793 5.86033 9.04957 5.85175 8.92374C5.84376 8.80663 5.84377 8.6672 5.84377 8.51542V8.48459C5.84377 8.33281 5.84376 8.19338 5.85175 8.07627C5.86033 7.95044 5.87989 7.81208 5.93813 7.67147C6.06394 7.36774 6.30526 7.12642 6.60899 7.00061C6.7496 6.94237 6.88796 6.92281 7.01379 6.91423C7.1309 6.90624 7.27033 6.90625 7.42211 6.90625ZM7.01345 7.98314C6.97178 8.00104 6.93856 8.03426 6.92066 8.07593C6.91933 8.08114 6.91501 8.10126 6.91178 8.1486C6.90656 8.2251 6.90627 8.32771 6.90627 8.5C6.90627 8.67229 6.90656 8.77491 6.91178 8.85141C6.91501 8.89875 6.91933 8.91887 6.92066 8.92408C6.93856 8.96575 6.97178 8.99897 7.01345 9.01687C7.01866 9.0182 7.03878 9.02252 7.08612 9.02575C7.16262 9.03097 7.26523 9.03125 7.43752 9.03125H9.56252C9.73481 9.03125 9.83743 9.03097 9.91393 9.02575C9.96127 9.02252 9.98138 9.0182 9.9866 9.01687C10.0283 8.99897 10.0615 8.96575 10.0794 8.92408C10.0807 8.91887 10.085 8.89875 10.0883 8.85141C10.0935 8.77491 10.0938 8.67229 10.0938 8.5C10.0938 8.32771 10.0935 8.2251 10.0883 8.1486C10.085 8.10126 10.0807 8.08114 10.0794 8.07593C10.0615 8.03426 10.0283 8.00104 9.9866 7.98314C9.98138 7.98181 9.96126 7.97749 9.91393 7.97426C9.83743 7.96904 9.73481 7.96875 9.56252 7.96875H7.43752C7.26523 7.96875 7.16262 7.96904 7.08612 7.97426C7.03878 7.97749 7.01866 7.98181 7.01345 7.98314Z"
		fill="currentColor"
	/>
</svg>